<svg version="1" xmlns="http://www.w3.org/2000/svg" width="392" height="392" viewBox="0 0 294.000000 294.000000"><path d="M128.4 8c-9.1 1-23.9 6.8-27.6 11-1.7 1.8-2.8 4.2-2.8 5.8 0 4.9-6.8 30.9-9.9 37.6-4.6 10.1-10 17.2-23.3 30.2-15.5 15.3-29.1 25.4-41.3 31-7.6 3.5-16.1 11.8-17 16.6-.8 4.2 2.6 11.7 7.2 16.1 3.9 3.6 21 10.6 30.2 12.2 8.8 1.6 10 2.5 8.1 6.1-2.4 4.3-13.5 14-20.7 18C14.2 202 9 210.1 9 227.8c0 9.9 1.6 13.7 6.5 15.8 4.6 1.9 7.5 1.8 17-.7 24-6.1 23.6-6 36.2-5.7 10.5.3 12.5.6 15 2.4 7.6 5.7 3.9 19.9-6.3 23.6-3.6 1.3-4.4 3.2-1.8 4.2.9.3 7.5.6 14.8.6 13.1 0 13.3 0 18.1-3.1 2.7-1.7 5.5-3.9 6.2-4.8 2.4-3.3 4.3-11.2 4.3-18.3 0-8.6-3-16.1-8.7-22-2.3-2.3-3.3-4.2-3-5.2 1.4-3.6 20.5-.7 22.7 3.4.5 1 1 4.5 1 7.8 0 7.9 2.4 11.2 8.1 11.2 4.3 0 8.8-1.8 7.2-2.9-.5-.3-.4-1.6.4-3.1l1.3-2.5v2.4c0 2 .2 2.1 1.5 1.1 1-.8 1.5-3 1.5-6.5 0-3.8.5-5.6 1.8-6.8 3.1-2.8 19.5-5.6 22.1-3.8 1.2.8.4 2.1-4.1 7-3.1 3.3-6.9 8.6-8.4 11.8-2.4 5-2.8 7-2.7 14.6.1 8.9 1 11.7 4.2 11.7.9 0 2.7.9 4.1 2 2.4 2 2.5 2.1.6 3.5-1.1.8-1.6 1.5-1.2 1.5 1 0 13.9-7.1 14.6-8 .3-.4 1.9-1 3.5-1.4 2.1-.5 2.6-.4 1.5.3-1 .7-1.5 2.8-1.6 6.3-.1 2.9-.3 6.2-.5 7.2-.3 1.3.5 2.5 2.3 3.5 2.6 1.5 2.9 1.5 4.3-.7.9-1.2 2.3-2.2 3.1-2.2.8 0 2.6-1.1 3.9-2.5 3-2.9 3.4-8.9.9-13.6-.8-1.7-1.4-3.2-1.2-3.2 7.9-3.9 15.7-8.2 15.4-8.5-.3-.2-4.4 1.4-9.3 3.6-4.8 2.3-10 4.4-11.5 4.7-2.6.7-2.8.5-2.8-2.5 0-9 17.7-15.9 25.3-10l2.6 2.1 5.3-2.7c9.5-4.8 22.8-12.5 22.8-13.2 0-.9-9.8-7.1-19.3-12.3-6.5-3.4-9.2-4.3-14.8-4.7-3.8-.2-6.9-.7-6.9-1.1 0-.7 12.6-12.1 13.3-12.1.3 0 1.8 1.8 3.4 3.9 3.3 4.5 11.3 11 16.4 13.5 1.9.9 5.7 3.6 8.5 6l5 4.4 7.5-4.3c11.5-6.7 11.5-6.9 1.8-17.6-7.8-8.6-19.8-18.5-28-23.2-2.1-1.2-3.9-2.7-3.9-3.3 0-1.6 6.5-3.2 15.6-3.9 7.7-.5 18.6-3.5 25-6.8 1.6-.8 4.8-3.4 7.1-5.7 3.7-3.6 4.3-4.7 4.3-8.3 0-3.7-.6-4.7-5.8-9.7-3.2-3-10.7-8.6-16.7-12.4-6.1-3.8-13.7-9-17-11.6-12.4-9.9-24.8-25.1-31-38.2-7-14.7-15-41.3-16.2-53.1-.7-8.4-.9-8.5-16.9-13.3-16.5-4.8-31.7-6.2-49-4.4zm42.6 6.8c6.4 1.7 13.2 3.7 15.1 4.5 3.5 1.4 3.5 1.5 5.2 11.3 2.1 11.8 5 22.1 10.7 37.5 6.3 17.4 12.8 28.4 23.4 39.6 5.3 5.8 5.3 6.1-.2 3.7-9.4-4.1-28.1-9.4-45.7-13-14.5-3-60-3-80.5 0-1.9.3-7.5 1-12.5 1.6-4.9.7-12.4 2-16.5 3s-8.7 2.1-10.1 2.4c-2 .4-.6-1.4 6.3-8.2 12.1-11.8 20-21.8 24.3-30.7 2.2-4.6 5.4-14.7 8.3-26.2 5.5-21.8 5.3-21.5 19.6-25.8 11.5-3.4 11.6-3.4 27.1-3 11.5.3 16 .9 25.5 3.3zm-54.4 113.8c6 3.7 12.5 12.5 7.9 10.8-1.1-.5-1.3-.2-.9 1 .4 1-.7 3-3.2 5.7-2.2 2.3-5.3 5.6-6.9 7.4-2.3 2.4-4.6 3.6-8.8 4.6l-5.8 1.2-8-4.1c-4.5-2.3-8.8-4.2-9.7-4.2-.8 0 .7 1.2 3.4 2.6 2.7 1.4 6.2 3.3 7.9 4.2 4.8 2.6 12.5 2.7 17.8.4 3.5-1.6 5.5-3.4 8.1-7.5 4.8-7.4 9.8-8.6 8.1-1.9-1.8 7.3-7.7 12.2-14.8 12.2-1.9 0-8 .9-13.6 2.1-11.9 2.4-15.1 1.8-20.7-3.7-4-4-4.3-6.1-1.1-7.4 1.5-.6 1.7-.9.6-.9-.9-.1-2.4-1.3-3.4-2.7-1.6-2.4-1.6-2.9-.1-6.8 2.2-5.7 8.1-11.2 15.2-14.2 5.1-2.1 7.1-2.4 14.6-2.1 7.5.3 9.3.7 13.4 3.3zm78.4-.9c9.1 3.2 15.5 9.7 17.4 17.5.8 3.4-.8 3.7-3.6.5l-2-2.2 1.6 2.5c2.9 4.5 2.2 6-3.1 6-3.5 0-5.8.8-9.5 3.1-10.1 6.5-20 5.3-26.6-3-1.9-2.5-4.7-5.6-6-6.8-1.7-1.4-2.3-2.7-1.8-3.8.4-1.3.2-1.6-.9-1.1-1.9.7-1.9.2-.1-3.2 3.1-5.9 10.1-10.1 18.6-11.2 6.5-.8 9.9-.4 16 1.7zm-48 3.3c1.8 1.8 2 3.3 2 13.4 0 6.3.5 12.7 1.1 14.3 2.3 6.2 8.5 10.2 21.9 14.3 5.8 1.7 7 2.4 5.5 3-3.1 1.2-17.5 3.7-18 3.1-.3-.2-.5-2.2-.5-4.3 0-6.9-7-11-13.1-7.7-1.5.8-3.4.7-7.1-.2-7-1.8-10.2 0-12.7 7.2l-1 2.7-6.3-1.4c-3.5-.7-8.5-1.4-11.3-1.4-5.4 0-9.2-1.5-6.5-2.4.8-.3 6.8-1.4 13.3-2.6 20.7-3.6 23.7-6.5 23.7-22.6 0-13.4 1.1-16.5 6.3-17.3.4 0 1.6.8 2.7 1.9zm14.9 15c1 .5 3.3 3.2 5 5.9 4 6.3 8.6 8.6 16.7 8.6 5.2 0 6.9-.5 11.5-3.4 6.7-4.2 15.9-5.6 15.9-2.4 0 2.6-6.9 9.1-10.9 10.3-2.4.7-5.8.4-12.4-.9-5.1-1-11.8-2.2-15-2.6-7.1-.8-12.1-4.7-13.7-10.6-1.5-5.3-.6-6.8 2.9-4.9zM139 171c1.1 1.1 2 2.3 2 2.8 0 1.8-3.3 5.2-5 5.2-2.4 0-5-2.6-5-5 0-2.2 2.6-5 4.6-5 .8 0 2.3.9 3.4 2zm13.8.2c1.9 1.9 1.5 6.6-.8 7.8-4 2.2-8.3-2.7-6-7 1.2-2.2 4.9-2.7 6.8-.8zm-80.5 3.7c3.4 1.8 3.4 2.5-.2 5l-2.9 2.1-.6-3.1c-.8-4.2-.8-6.1.2-5.7.4.2 1.9 1 3.5 1.7zm144 5c0 1.8-.5 3.7-1 4.2-1.1 1.1-6.3-2.6-6.3-4.5 0-2.1 2.4-3.7 5-3.4 2.2.3 2.5.8 2.3 3.7zm-108-.8c4 .6 7.7 1.5 8.2 1.9.6.4 2.8 1.3 5 2s4.7 1.8 5.5 2.5c2.1 1.6 24.7 2 31.3.5 2.9-.7 7.2-1.9 9.6-2.6 5.5-1.7 17.8-1.8 21-.1 1.3.6 3.3 2.4 4.4 3.9 1.9 2.5 1.9 2.8.4 5.2-1.9 2.8-4.7 4.5-9.2 5.7-11.8 3-22.3 6.2-24.2 7.4-2.7 1.8-5.7 1.9-5 .2.2-.6.8-2.3 1.2-3.7.7-2.2.6-2.3-.9-1.1-.9.7-1.6.9-1.6.4 0-1.2 2.9-3.8 5.3-4.6.9-.4 1.7-1.1 1.7-1.7 0-1.6-4.1-1.2-6.2.6-2.1 2-9.1 2.2-11.3.4-1.2-1-2.1-1-4.1-.1-2.8 1.2-7.1.6-9.5-1.6-1.2-1-2.3-1.1-4.3-.3-1.9.7-3.3.7-4.8-.1-1.1-.6-2.2-.8-2.5-.6-.7.8 6.9 4.5 8.5 4.1.7-.1.8 0 .2.3-.5.2-1 1.6-1 2.9 0 3-1.3 3-8.2.4-2.9-1.1-6.3-2-7.6-2-3.9 0-13.5-3.9-16.4-6.7-3.8-3.6-3.8-8.4-.2-11.8 3-2.8 4.6-3 14.7-1.4zm-41.2 20.1c4 4.3 5.2 6.5 3.9 7.3-.5.3-5.4 1.4-10.9 2.5-5.5 1-11.4 2.6-13.2 3.5-5.1 2.7-10.6 8.3-11.3 11.6-.3 1.9-1.1 2.9-1.8 2.7-1.9-.6-2.2-4.7-.6-7.6 1.6-3.1 10.6-9.9 14.3-10.8 1.5-.4 5.5-3.3 8.9-6.5 3.3-3.2 6.5-5.8 6.9-5.9.4 0 2.2 1.5 3.8 3.2zm80.6 27.5c-.3 1-.5.2-.5-1.7s.2-2.7.5-1.8c.2 1 .2 2.6 0 3.5zm-43.2 1.4c4.8 4.3 6.8 8.5 6.7 14-.2 8.4-4.9 16.1-12.9 21-5.6 3.5-5.9 1-.5-3.7 5.3-4.6 10.2-13 10.2-17.3-.1-3.4-3-9.8-6.4-13.9-3.5-4.1-1.8-4.2 2.9-.1zm76.2 2.9c-6.7 5.9-9 11.4-8.5 19.8.3 3.7.8 7.5 1.3 8.5.5 1.3.4 1.6-.8 1.1-2.6-1-5.1-8.8-4.4-13.9 1.2-8.1 5.1-13.8 12.7-18.4 5-3 4.9-1.7-.3 2.9zm-90-1c6.3 3.6 9.4 7.8 10.1 13.5.6 5.5-.2 8.4-2.8 11.3-3.2 3.5-4.2 2.6-2-1.8 2.4-4.6 2.6-9 .6-12.9-1.8-3.3-8.6-9.6-11.5-10.6-2.3-.7-2.9-2.5-.8-2.5.6 0 3.5 1.4 6.4 3zm97.1 8.7c-4.5 5-6 8-5.8 12.5.3 6.1.1 6.5-1.5 4.4-1.8-2.3-1.9-6.9-.4-9.9 1.5-2.9 8-9.7 9.3-9.7.5 0-.2 1.2-1.6 2.7z"/><path d="M94.3 132c-3.3 1.3-2.8 2.3.7 1.5l3.1-.7-2.6 3.8c-3.6 5.3-3.4 10.8.5 15.6 3.5 4.2 6.9 5.3 11.6 3.8 7.4-2.5 9.8-11.2 4.9-18.4-3-4.5-3.1-4.6-.2-4.7 2.1-.1 2.1-.1-.3-.9-3.4-1.1-15-1.1-17.7 0zM80.9 140.7c-1.3 1.6-1.2 1.7.4.4.9-.7 1.7-1.5 1.7-1.7 0-.8-.8-.3-2.1 1.3zM171.5 133c-1.6.7-1.4.9 1.4.9l3.4.1-2 2.2c-5.3 5.9-5.9 12.9-1.4 17.7 2.3 2.5 3.7 3.1 7.1 3.1 5.2 0 7.3-1.1 9.9-5.4 2.8-4.5 2.7-9.5-.4-14l-2.4-3.6 2.7-.1c2.4 0 2.5-.1.7-.9-1.1-.5-5.4-.9-9.5-.9s-8.4.4-9.5.9zM261.5 219.8c-4.4 2.6-9.1 5.4-10.5 6.3-19.3 12.4-25 16.2-25 16.5 0 .2 2.6 1.6 5.7 3 3.2 1.3 6.4 3.1 7.3 3.9 1.9 1.7 16.9 3.9 22.2 3.2 5-.7 10.4-5.6 11.8-10.7 2-7 .1-25.9-2.6-26.6-.5-.2-4.5 1.8-8.9 4.4zm-5.7 12.8l-.3 2.8-1.8-2.8c-1-1.5-1.6-3.5-1.2-4.4 1-2.6 3.7.9 3.3 4.4zM162.4 274.4c-2.3 1.8-1.2 3.3 1.6 2 1.2-.6 1.7-1.4 1.2-2.1-.7-1-1.2-1-2.8.1zM149.5 279c-.3.5-2.1 1-3.9 1-2.4 0-4.1 1-7.1 4-2.1 2.1-5.1 4.2-6.7 4.5-3.3.8-3.7 3-.6 4.6 4.8 2.6 16.4-1.1 19.7-6.3 1.8-2.9 2.2-8.8.6-8.8-.8 0-1.7.4-2 1zm-2.5 6.9c0 2.8-3.8 5.1-8.2 5.1-4.7 0-4.9-1.5-.4-3 1.9-.6 4-1.8 4.6-2.6 1.8-2 4-1.7 4 .5z"/></svg>